<?xml version="1.0" encoding="UTF-8"?>
<svg version="1.1" xmlns="http://www.w3.org/2000/svg" width="500" height="500">
<path d="M0 0 C0.90943359 -0.04576172 1.81886719 -0.09152344 2.75585938 -0.13867188 C5.27496576 -0.18130576 7.4804937 -0.1191972 9.9375 0.4375 C12.06484611 2.6155835 12.76911421 3.74985095 13.9375 6.4375 C14.52833374 7.62146362 14.52833374 7.62146362 15.13110352 8.8293457 C16.5257366 11.63844322 17.85986597 14.47116291 19.1875 17.3125 C20.15641062 19.36382079 21.12647064 21.41459906 22.09765625 23.46484375 C22.57477051 24.47272949 23.05188477 25.48061523 23.54345703 26.51904297 C26.57846502 32.87289332 29.75580264 39.15615478 32.9375 45.4375 C36.62380268 41.31079833 38.58345847 37.09592827 40.6875 32.0625 C43.84484679 24.7235994 47.33304184 17.67300304 51.17578125 10.671875 C52.35176556 8.51286168 53.45432975 6.31225042 54.48046875 4.078125 C55.9375 1.4375 55.9375 1.4375 58.9375 0.4375 C60.52002238 0.34448271 62.10615397 0.30681027 63.69140625 0.3046875 C64.62919922 0.30339844 65.56699219 0.30210937 66.53320312 0.30078125 C67.51224609 0.30464844 68.49128906 0.30851563 69.5 0.3125 C70.92795898 0.30669922 70.92795898 0.30669922 72.38476562 0.30078125 C73.33158203 0.30207031 74.27839844 0.30335938 75.25390625 0.3046875 C76.10412354 0.30581543 76.95434082 0.30694336 77.83032227 0.30810547 C82.21177326 0.49056552 86.57401465 1.00115146 90.9375 1.4375 C91.2675 30.4775 91.5975 59.5175 91.9375 89.4375 C88.93734088 90.43755304 86.96326244 90.55325585 83.83203125 90.53515625 C82.84912109 90.53193359 81.86621094 90.52871094 80.85351562 90.52539062 C79.82935547 90.51701172 78.80519531 90.50863281 77.75 90.5 C76.71423828 90.49548828 75.67847656 90.49097656 74.61132812 90.48632812 C72.05332734 90.4745401 69.49544267 90.45808515 66.9375 90.4375 C66.1658821 87.01950238 65.81492734 83.8731185 65.82397461 80.37182617 C65.82408791 78.90086739 65.82408791 78.90086739 65.82420349 77.40019226 C65.82936478 76.3541835 65.83452606 75.30817474 65.83984375 74.23046875 C65.8412587 73.14993729 65.84267365 72.06940582 65.84413147 70.95613098 C65.8497192 67.51239224 65.8622695 64.06871902 65.875 60.625 C65.88001658 58.28711032 65.88457921 55.94921961 65.88867188 53.61132812 C65.89968462 47.88669647 65.91641059 42.16210292 65.9375 36.4375 C65.58558594 37.17162109 65.23367187 37.90574219 64.87109375 38.66210938 C50.37409756 68.88626463 50.37409756 68.88626463 46.62109375 76.1640625 C45.53069725 78.28413736 44.47833871 80.42439067 43.47265625 82.5859375 C43.00730469 83.50632812 42.54195313 84.42671875 42.0625 85.375 C41.69382812 86.14714844 41.32515625 86.91929687 40.9453125 87.71484375 C37.55808579 90.62100519 33.2651407 90.27934533 28.9375 90.4375 C24.11783969 81.35749798 19.31149908 72.27554273 14.75 63.0625 C8.83976934 50.96765756 8.83976934 50.96765756 1.9375 39.4375 C1.6075 55.9375 1.2775 72.4375 0.9375 89.4375 C-1.61973229 90.71611615 -3.42987102 90.55086609 -6.2890625 90.53515625 C-7.8359375 90.53032227 -7.8359375 90.53032227 -9.4140625 90.52539062 C-11.03441406 90.51282227 -11.03441406 90.51282227 -12.6875 90.5 C-14.31945312 90.49323242 -14.31945312 90.49323242 -15.984375 90.48632812 C-18.67713789 90.47451776 -21.36979188 90.45804778 -24.0625 90.4375 C-25.21092333 86.33388207 -25.15440352 82.41106204 -25.08422852 78.18066406 C-25.07462097 77.35102646 -25.06501343 76.52138885 -25.05511475 75.66661072 C-25.02217543 72.92869444 -24.9818238 70.19094025 -24.94140625 67.453125 C-24.91710018 65.55312672 -24.89325687 63.65312246 -24.86985779 61.75311279 C-24.80706531 56.75536287 -24.73798493 51.75771883 -24.66760254 46.7600708 C-24.59687544 41.65910662 -24.53208466 36.55806744 -24.46679688 31.45703125 C-24.33784687 21.4504384 -24.20225512 11.44394737 -24.0625 1.4375 C-22.01512108 1.2764245 -19.9676601 1.11639204 -17.92016602 0.95678711 C-16.2099099 0.82293861 -16.2099099 0.82293861 -14.46510315 0.68638611 C-9.64238217 0.33362435 -4.83399393 0.10330569 0 0 Z " fill="#03CBF9" transform="translate(159.0625,197.5625)"/>
<path d="M0 0 C1.02138565 -0.0033284 2.0427713 -0.0066568 3.09510803 -0.01008606 C5.23877517 -0.01511139 7.38245002 -0.01749576 9.52612305 -0.01733398 C12.77340758 -0.01952333 16.02035331 -0.03773429 19.26757812 -0.05664062 C38.84148599 -0.11133892 55.05538923 1.1871515 69.94140625 15.12890625 C76.82884646 22.24764109 81.31199824 31.1690193 81.84765625 41.16796875 C81.92113281 42.03679687 81.99460937 42.905625 82.0703125 43.80078125 C82.64437207 55.07589996 78.87107377 64.64298558 71.62109375 73.22265625 C71.03585937 73.86460937 70.450625 74.5065625 69.84765625 75.16796875 C69.28304687 75.78929687 68.7184375 76.410625 68.13671875 77.05078125 C66.76913695 78.48507435 65.31560304 79.83657515 63.84765625 81.16796875 C63.18765625 81.16796875 62.52765625 81.16796875 61.84765625 81.16796875 C61.84765625 81.82796875 61.84765625 82.48796875 61.84765625 83.16796875 C60.41378857 83.78070613 58.97524002 84.38248684 57.53515625 84.98046875 C56.73464844 85.31691406 55.93414062 85.65335937 55.109375 86 C45.21130911 89.54433737 36.51794502 90.5848235 25.9921875 90.4609375 C24.76479858 90.45791626 23.53740967 90.45489502 22.27282715 90.45178223 C17.73518332 90.43621401 13.19766037 90.39433118 8.66015625 90.35546875 C-1.50796875 90.29359375 -11.67609375 90.23171875 -22.15234375 90.16796875 C-21.82234375 69.04796875 -21.49234375 47.92796875 -21.15234375 26.16796875 C-6.24990473 28.46065168 -6.24990473 28.46065168 -2.15234375 32.16796875 C-1.27509644 32.90539307 -1.27509644 32.90539307 -0.38012695 33.65771484 C3.95407657 37.80406693 5.33132921 40.82508488 5.53125 46.85546875 C5.48511728 49.29391234 5.40220079 51.73189897 5.28515625 54.16796875 C5.25357422 55.41964844 5.22199219 56.67132813 5.18945312 57.9609375 C5.10739105 61.03240374 4.99263234 64.09893638 4.84765625 67.16796875 C9.3649542 67.12340279 13.88095439 67.05314942 18.39746094 66.96044922 C19.92957791 66.932458 21.46183343 66.91113629 22.99414062 66.89697266 C33.2393418 66.79666063 42.41461049 66.44504732 50.78515625 59.85546875 C54.3481167 55.21282332 56.61264844 50.04316393 56.84765625 44.16796875 C55.3919422 36.96738316 52.42459565 31.95003272 46.59765625 27.41796875 C36.82954586 22.97791857 26.41161367 24.06047504 15.95117188 24.33398438 C2.78690196 24.52611514 -6.24633756 22.14383351 -16.15234375 13.16796875 C-22.15234375 6.01189939 -22.15234375 6.01189939 -22.15234375 1.16796875 C-14.75069609 0.38581117 -7.44103493 0.008666 0 0 Z " fill="#02BBF2" transform="translate(277.15234375,197.83203125)"/>
<path d="M0 0 C1.75183594 -0.03867188 1.75183594 -0.03867188 3.5390625 -0.078125 C4.47492188 0.03015625 5.41078125 0.1384375 6.375 0.25 C8.70546482 3.74569722 8.62332479 5.12086836 8.61791992 9.25024414 C8.62099655 10.48484879 8.62407318 11.71945343 8.62724304 12.99147034 C8.62034561 14.33936754 8.61307866 15.68726289 8.60546875 17.03515625 C8.60427653 18.41613217 8.60382388 19.79710891 8.6040802 21.17808533 C8.60251659 24.07067957 8.59423568 26.96314983 8.58081055 29.85571289 C8.56380497 33.5671042 8.55999674 37.27835948 8.56075573 40.98978519 C8.5604841 43.84046227 8.55500426 46.6911095 8.54775429 49.54177666 C8.54456816 50.91054496 8.54260034 52.27931665 8.54186058 53.64808846 C8.53969736 55.55845477 8.53016068 57.46880848 8.52026367 59.37915039 C8.51454597 61.01105064 8.51454597 61.01105064 8.50871277 62.67591858 C8.375 65.25 8.375 65.25 7.375 67.25 C7.96159897 67.23525131 8.54819794 67.22050262 9.15257263 67.20530701 C15.23512359 67.05336933 21.31781326 66.90850378 27.40063477 66.76782227 C29.67346508 66.7143152 31.94625308 66.65897944 34.21899414 66.60180664 C37.47793449 66.52013784 40.73696836 66.44495749 43.99609375 66.37109375 C45.01900009 66.34405869 46.04190643 66.31702362 47.09580994 66.28916931 C48.03670975 66.26907303 48.97760956 66.24897675 49.94702148 66.22827148 C50.77975082 66.20828598 51.61248016 66.18830048 52.47044373 66.16770935 C54.375 66.25 54.375 66.25 55.375 67.25 C55.58720322 69.85833122 55.75156339 72.44975832 55.875 75.0625 C56.0753477 79.23641051 56.35211652 83.18797234 57.375 87.25 C57.045 87.91 56.715 88.57 56.375 89.25 C46.48318439 89.40358383 36.59130425 89.55176557 26.69930363 89.6929636 C22.10653806 89.75869221 17.51381632 89.82631352 12.92114258 89.89819336 C8.49272105 89.96743396 4.06425351 90.03179041 -0.36429024 90.09269524 C-2.05767986 90.11685523 -3.75104488 90.14280441 -5.44437981 90.17053413 C-7.8078514 90.20893848 -10.1713288 90.24110038 -12.53491211 90.27172852 C-13.59550339 90.29114754 -13.59550339 90.29114754 -14.67752075 90.31095886 C-16.32670618 90.32907452 -17.97633293 90.29514041 -19.625 90.25 C-20.625 89.25 -20.625 89.25 -20.70729065 85.78892517 C-20.69232653 84.21200843 -20.6716448 82.6351405 -20.64672852 81.05834961 C-20.63712097 80.19988937 -20.62751343 79.34142914 -20.61761475 78.45695496 C-20.58450262 75.60533761 -20.54421715 72.7538677 -20.50390625 69.90234375 C-20.47961705 67.93079659 -20.45577291 65.95924389 -20.43235779 63.98768616 C-20.36939735 58.78768638 -20.30036481 53.58778398 -20.23010254 48.38787842 C-20.15952682 43.08610484 -20.09464555 37.784262 -20.02929688 32.48242188 C-19.90013048 22.07153846 -19.76455453 11.66074898 -19.625 1.25 C-17.71182797 1.08666464 -15.79856059 0.92444574 -13.88525391 0.76269531 C-12.81981354 0.67223938 -11.75437317 0.58178345 -10.65664673 0.48858643 C-7.0936566 0.20818401 -3.57383205 0.04840405 0 0 Z " fill="#05DBFB" transform="translate(73.625,197.75)"/>
<path d="M0 0 C4.32322461 -0.12400035 8.64549602 -0.21452256 12.9699707 -0.2746582 C14.43955525 -0.29973644 15.90901587 -0.33380856 17.37817383 -0.37719727 C19.49591681 -0.43815499 21.61200576 -0.46627316 23.73046875 -0.48828125 C25.00301514 -0.51446533 26.27556152 -0.54064941 27.58666992 -0.56762695 C31.89487869 0.14881575 33.23886917 1.70738534 36 5 C36.76441406 5.7528125 37.52882813 6.505625 38.31640625 7.28125 C44.59100999 13.47946726 44.59100999 13.47946726 47.0625 16.625 C49.39716222 19.48684401 52.05682598 21.71835084 54.85546875 24.1171875 C59.62924253 28.30836958 64.00305789 32.82927116 68.14013672 37.64453125 C71.89061267 41.93793221 75.85613117 45.9674752 79.91015625 49.97265625 C80.6406871 50.69940048 81.37121796 51.42614471 82.12388611 52.1749115 C84.43431892 54.47324465 86.74797921 56.76828414 89.0625 59.0625 C92.11884369 62.09209233 95.1717523 65.12508705 98.22265625 68.16015625 C99.25882835 69.18388084 99.25882835 69.18388084 100.31593323 70.22828674 C103.95732589 73.85138978 107.41443074 77.53951049 110.68016052 81.5063324 C112.56191066 83.63591654 114.71690334 85.32125246 117 87 C116.505 88.485 116.505 88.485 116 90 C111.73179948 90.17439217 107.46553888 90.30067865 103.19482422 90.38452148 C101.74556316 90.41950365 100.29654519 90.46710991 98.84814453 90.52807617 C85.27278143 91.08475026 85.27278143 91.08475026 80.34765625 86.8125 C79.20078505 85.56955829 78.08191174 84.29987869 77 83 C76.02937432 82.05360088 75.04963151 81.11640878 74.05859375 80.19140625 C66.13539141 72.24458781 66.13539141 72.24458781 62.75 68.25 C58.65060394 63.43420463 54.10504899 59.05436192 49.59277344 54.62988281 C46.5393173 51.6177971 43.5962319 48.57715508 40.81616211 45.30957031 C36.83421875 40.73363831 32.55925282 36.50289553 28.22265625 32.265625 C26.5588118 30.62413669 24.89541292 28.98219663 23.23242188 27.33984375 C20.63397773 24.77869312 18.03261066 22.22078261 15.42358398 19.67041016 C12.88924555 17.1902961 10.36756775 14.69788454 7.84765625 12.203125 C7.0602858 11.43953674 6.27291534 10.67594849 5.46168518 9.88922119 C4.7435112 9.17457703 4.02533722 8.45993286 3.28540039 7.72363281 C2.331119 6.7871994 2.331119 6.7871994 1.3575592 5.83184814 C0 4 0 4 0 0 Z " fill="#04AAE4" transform="translate(342,198)"/>
<path d="M0 0 C3.06137278 1.23114453 4.49468018 3.17969319 6.61328125 5.6875 C9.57785761 9.17796643 12.51948612 12.1085968 16.17578125 14.875 C14.64188713 18.51226726 12.4604733 20.83482133 9.67578125 23.60546875 C8.78890625 24.49041016 7.90203125 25.37535156 6.98828125 26.28710938 C5.59609375 27.66092773 5.59609375 27.66092773 4.17578125 29.0625 C3.24765625 29.98998047 2.31953125 30.91746094 1.36328125 31.87304688 C-6.64619618 39.83013673 -6.64619618 39.83013673 -10.80517578 39.98852539 C-12.67471924 39.98067017 -12.67471924 39.98067017 -14.58203125 39.97265625 C-15.57660843 39.97053383 -15.57660843 39.97053383 -16.59127808 39.96836853 C-18.71063738 39.96276754 -20.82989134 39.950215 -22.94921875 39.9375 C-24.38541514 39.93248512 -25.82161319 39.92792219 -27.2578125 39.92382812 C-30.7799822 39.91279782 -34.3020902 39.89553259 -37.82421875 39.875 C-38.15421875 39.215 -38.48421875 38.555 -38.82421875 37.875 C-34.82896336 33.06820836 -30.70162132 28.77757767 -25.94140625 24.73046875 C-21.06319945 20.45528751 -16.4268722 15.88859023 -12.38671875 10.8125 C-11.87109375 10.173125 -11.35546875 9.53375 -10.82421875 8.875 C-10.16421875 8.875 -9.50421875 8.875 -8.82421875 8.875 C-8.82421875 8.215 -8.82421875 7.555 -8.82421875 6.875 C-8.16421875 6.875 -7.50421875 6.875 -6.82421875 6.875 C-6.55609375 6.276875 -6.28796875 5.67875 -6.01171875 5.0625 C-3.1464626 -0.21560343 -3.1464626 -0.21560343 0 0 Z " fill="#03B5EC" transform="translate(377.82421875,248.125)"/>
<path d="M0 0 C0.66 0.33 1.32 0.66 2 1 C2 1.66 2 2.32 2 3 C0.56640625 4.375 0.56640625 4.375 -1.4375 6 C-5.66520043 9.57670939 -9.23361863 13.54103989 -12.8828125 17.6953125 C-15.4040998 20.43988724 -18.09560976 22.67648781 -21 25 C-21.33 25.66 -21.66 26.32 -22 27 C-22.66 27 -23.32 27 -24 27 C-24.24492187 27.56203125 -24.48984375 28.1240625 -24.7421875 28.703125 C-26.22926539 31.41865854 -28.04062782 33.46391438 -30.125 35.75 C-30.84945313 36.54921875 -31.57390625 37.3484375 -32.3203125 38.171875 C-32.87460937 38.77515625 -33.42890625 39.3784375 -34 40 C-35.32 39.34 -36.64 38.68 -38 38 C-38 37.34 -38 36.68 -38 36 C-38.66 36 -39.32 36 -40 36 C-41.5859375 34.390625 -41.5859375 34.390625 -43.375 32.25 C-45.34870369 29.90467846 -47.21632208 27.80531012 -49.5 25.75 C-49.995 25.1725 -50.49 24.595 -51 24 C-50.17998459 16.28832145 -41.7052827 9.31079883 -36.40234375 4.31640625 C-26.29253862 -3.7010439 -12.10436196 -1.95822171 0 0 Z " fill="#04A8E1" transform="translate(456,198)"/>
<path d="M0 0 C1.03447266 -0.00128906 2.06894531 -0.00257813 3.13476562 -0.00390625 C4.22595703 -0.00003906 5.31714844 0.00382813 6.44140625 0.0078125 C8.02598633 0.00201172 8.02598633 0.00201172 9.64257812 -0.00390625 C10.68865234 -0.00261719 11.73472656 -0.00132812 12.8125 0 C13.75923584 0.00112793 14.70597168 0.00225586 15.68139648 0.00341797 C20.13478566 0.17685439 24.5692592 0.6893478 29.00390625 1.1328125 C29.33390625 30.1728125 29.66390625 59.2128125 30.00390625 89.1328125 C27.00374713 90.13286554 25.02966869 90.24856835 21.8984375 90.23046875 C20.91552734 90.22724609 19.93261719 90.22402344 18.91992188 90.22070312 C17.89576172 90.21232422 16.87160156 90.20394531 15.81640625 90.1953125 C14.26276367 90.18854492 14.26276367 90.18854492 12.67773438 90.18164062 C10.11973359 90.1698526 7.56184892 90.15339765 5.00390625 90.1328125 C4.23228835 86.71481488 3.88133359 83.568431 3.89038086 80.06713867 C3.89045639 79.08649948 3.89053192 78.10586029 3.89060974 77.09550476 C3.89577103 76.049496 3.90093231 75.00348724 3.90625 73.92578125 C3.90766495 72.84524979 3.9090799 71.76471832 3.91053772 70.65144348 C3.91612545 67.20770474 3.92867575 63.76403152 3.94140625 60.3203125 C3.94642283 57.98242282 3.95098546 55.64453211 3.95507812 53.30664062 C3.96609087 47.58200897 3.98281684 41.85741542 4.00390625 36.1328125 C3.01390625 38.1128125 2.02390625 40.0928125 1.00390625 42.1328125 C0.04924842 39.96313561 -0.14010587 38.56952457 0.60546875 36.30859375 C1.3626101 34.5643382 2.17999823 32.84654119 3.00390625 31.1328125 C3.99390625 31.1328125 4.98390625 31.1328125 6.00390625 31.1328125 C6.00390625 49.9428125 6.00390625 68.7528125 6.00390625 88.1328125 C12.93390625 88.1328125 19.86390625 88.1328125 27.00390625 88.1328125 C27.00390625 60.0828125 27.00390625 32.0328125 27.00390625 3.1328125 C16.44390625 3.1328125 5.88390625 3.1328125 -4.99609375 3.1328125 C-5.32609375 4.7828125 -5.65609375 6.4328125 -5.99609375 8.1328125 C-6.65609375 8.1328125 -7.31609375 8.1328125 -7.99609375 8.1328125 C-8.14046875 8.9165625 -8.28484375 9.7003125 -8.43359375 10.5078125 C-8.99609375 13.1328125 -8.99609375 13.1328125 -9.99609375 15.1328125 C-10.65609375 15.1328125 -11.31609375 15.1328125 -11.99609375 15.1328125 C-7.45894484 0.00898282 -7.45894484 0.00898282 0 0 Z " fill="#1B6273" transform="translate(220.99609375,197.8671875)"/>
<path d="M0 0 C1.75183594 -0.03867188 1.75183594 -0.03867188 3.5390625 -0.078125 C4.47492188 0.03015625 5.41078125 0.1384375 6.375 0.25 C8.70546482 3.74569722 8.62332479 5.12086836 8.61791992 9.25024414 C8.62099655 10.48484879 8.62407318 11.71945343 8.62724304 12.99147034 C8.62034561 14.33936754 8.61307866 15.68726289 8.60546875 17.03515625 C8.60427653 18.41613217 8.60382388 19.79710891 8.6040802 21.17808533 C8.60251659 24.07067957 8.59423568 26.96314983 8.58081055 29.85571289 C8.56380497 33.5671042 8.55999674 37.27835948 8.56075573 40.98978519 C8.5604841 43.84046227 8.55500426 46.6911095 8.54775429 49.54177666 C8.54456816 50.91054496 8.54260034 52.27931665 8.54186058 53.64808846 C8.53969736 55.55845477 8.53016068 57.46880848 8.52026367 59.37915039 C8.51454597 61.01105064 8.51454597 61.01105064 8.50871277 62.67591858 C8.375 65.25 8.375 65.25 7.375 67.25 C7.96159897 67.23525131 8.54819794 67.22050262 9.15257263 67.20530701 C15.23512359 67.05336933 21.31781326 66.90850378 27.40063477 66.76782227 C29.67346508 66.7143152 31.94625308 66.65897944 34.21899414 66.60180664 C37.47793449 66.52013784 40.73696836 66.44495749 43.99609375 66.37109375 C45.01900009 66.34405869 46.04190643 66.31702362 47.09580994 66.28916931 C48.03670975 66.26907303 48.97760956 66.24897675 49.94702148 66.22827148 C50.77975082 66.20828598 51.61248016 66.18830048 52.47044373 66.16770935 C54.375 66.25 54.375 66.25 55.375 67.25 C55.58720322 69.85833122 55.75156339 72.44975832 55.875 75.0625 C56.0753477 79.23641051 56.35211652 83.18797234 57.375 87.25 C57.045 87.91 56.715 88.57 56.375 89.25 C46.145 89.25 35.915 89.25 25.375 89.25 C25.375 88.92 25.375 88.59 25.375 88.25 C34.615 88.25 43.855 88.25 53.375 88.25 C53.375 81.98 53.375 75.71 53.375 69.25 C37.865 69.25 22.355 69.25 6.375 69.25 C6.375 47.14 6.375 25.03 6.375 2.25 C-1.875 2.25 -10.125 2.25 -18.625 2.25 C-18.295 31.29 -17.965 60.33 -17.625 90.25 C-18.615 89.92 -19.605 89.59 -20.625 89.25 C-20.295 60.21 -19.965 31.17 -19.625 1.25 C-5.52257412 0.07479784 -5.52257412 0.07479784 0 0 Z " fill="#197F91" transform="translate(73.625,197.75)"/>
<path d="M0 0 C13 2 13 2 18 5 C17.67 5.66 17.34 6.32 17 7 C16.38125 6.71125 15.7625 6.4225 15.125 6.125 C10.89354839 4.60167742 6.40996407 3.88199281 2 3 C2 22.14 2 41.28 2 61 C32.69 60.505 32.69 60.505 64 60 C64 59.67 64 59.34 64 59 C66.64 59 69.28 59 72 59 C72 58.34 72 57.68 72 57 C74.64 57 77.28 57 80 57 C77.71056844 59.28943156 76.33106561 59.64103626 73.25 60.5 C70.53074236 61.26739786 67.88293643 62.04380533 65.2350769 63.03463745 C61.81896478 64.05402178 59.09227625 64.24133444 55.53564453 64.22705078 C54.25729736 64.22680908 52.9789502 64.22656738 51.66186523 64.22631836 C50.31884563 64.21625032 48.97582798 64.20591735 47.6328125 64.1953125 C45.78417603 64.19229126 45.78417603 64.19229126 43.89819336 64.18920898 C39.30709089 64.17876761 34.7160416 64.15084505 30.125 64.125 C19.85375 64.08375 9.5825 64.0425 -1 64 C-0.67 42.88 -0.34 21.76 0 0 Z " fill="#16849F" transform="translate(256,224)"/>
<path d="M0 0 C0.90943359 -0.04576172 1.81886719 -0.09152344 2.75585938 -0.13867188 C5.27513666 -0.18130865 7.48043429 -0.11979057 9.9375 0.4375 C12.05980627 2.61765448 12.76531306 3.75450893 13.9375 6.4375 C14.34299072 7.23937744 14.74848145 8.04125488 15.16625977 8.86743164 C16.55281305 11.62071955 17.87491652 14.3982601 19.1875 17.1875 C19.87585938 18.62416016 19.87585938 18.62416016 20.578125 20.08984375 C23.9375 27.17852493 23.9375 27.17852493 23.9375 29.4375 C22.2875 29.7675 20.6375 30.0975 18.9375 30.4375 C19.2675 28.4575 19.5975 26.4775 19.9375 24.4375 C19.2775 24.4375 18.6175 24.4375 17.9375 24.4375 C17.64746094 23.48037109 17.64746094 23.48037109 17.3515625 22.50390625 C16.96097656 21.26447266 16.96097656 21.26447266 16.5625 20 C16.30726563 19.17628906 16.05203125 18.35257813 15.7890625 17.50390625 C15.12867773 15.25951984 15.12867773 15.25951984 12.9375 14.4375 C12.0859375 12.4765625 12.0859375 12.4765625 11.3125 10.0625 C11.05210937 9.27101562 10.79171875 8.47953125 10.5234375 7.6640625 C9.9375 5.4375 9.9375 5.4375 9.9375 2.4375 C-0.9525 2.4375 -11.8425 2.4375 -23.0625 2.4375 C-23.0625 30.8175 -23.0625 59.1975 -23.0625 88.4375 C-15.4725 88.4375 -7.8825 88.4375 -0.0625 88.4375 C-0.0625 69.9575 -0.0625 51.4775 -0.0625 32.4375 C1.90111284 36.36472569 2.17197364 37.58960698 2.07275391 41.75683594 C2.05258209 42.81763367 2.03241028 43.8784314 2.0116272 44.97137451 C1.96333267 46.67937225 1.96333267 46.67937225 1.9140625 48.421875 C1.88903656 49.59260559 1.86401062 50.76333618 1.83822632 51.96954346 C1.75604899 55.70915778 1.65944905 59.44824229 1.5625 63.1875 C1.50425824 65.7226346 1.44695501 68.25779095 1.390625 70.79296875 C1.25047334 77.00810591 1.09847852 83.2228693 0.9375 89.4375 C-1.61973229 90.71611615 -3.42987102 90.55086609 -6.2890625 90.53515625 C-7.8359375 90.53032227 -7.8359375 90.53032227 -9.4140625 90.52539062 C-11.03441406 90.51282227 -11.03441406 90.51282227 -12.6875 90.5 C-14.31945312 90.49323242 -14.31945312 90.49323242 -15.984375 90.48632812 C-18.67713789 90.47451776 -21.36979188 90.45804778 -24.0625 90.4375 C-25.21092333 86.33388207 -25.15440352 82.41106204 -25.08422852 78.18066406 C-25.07462097 77.35102646 -25.06501343 76.52138885 -25.05511475 75.66661072 C-25.02217543 72.92869444 -24.9818238 70.19094025 -24.94140625 67.453125 C-24.91710018 65.55312672 -24.89325687 63.65312246 -24.86985779 61.75311279 C-24.80706531 56.75536287 -24.73798493 51.75771883 -24.66760254 46.7600708 C-24.59687544 41.65910662 -24.53208466 36.55806744 -24.46679688 31.45703125 C-24.33784687 21.4504384 -24.20225512 11.44394737 -24.0625 1.4375 C-22.01512108 1.2764245 -19.9676601 1.11639204 -17.92016602 0.95678711 C-16.2099099 0.82293861 -16.2099099 0.82293861 -14.46510315 0.68638611 C-9.64238217 0.33362435 -4.83399393 0.10330569 0 0 Z " fill="#165E6F" transform="translate(159.0625,197.5625)"/>
<path d="M0 0 C1.02138565 -0.0033284 2.0427713 -0.0066568 3.09510803 -0.01008606 C5.23877517 -0.01511139 7.38245002 -0.01749576 9.52612305 -0.01733398 C12.77340758 -0.01952333 16.02035331 -0.03773429 19.26757812 -0.05664062 C45.25570455 -0.1280071 45.25570455 -0.1280071 55.84765625 5.16796875 C55.84765625 5.49796875 55.84765625 5.82796875 55.84765625 6.16796875 C53.88895195 6.0272056 51.93069532 5.88020115 49.97265625 5.73046875 C48.88210938 5.64925781 47.7915625 5.56804687 46.66796875 5.484375 C43.84765625 5.16796875 43.84765625 5.16796875 41.84765625 4.16796875 C39.93857439 4.04802795 38.02543377 3.99065587 36.11279297 3.96264648 C34.91169891 3.94270126 33.71060486 3.92275604 32.47311401 3.90220642 C31.17100983 3.88549393 29.86890564 3.86878143 28.52734375 3.8515625 C27.18498087 3.8309925 25.84262446 3.80999602 24.50027466 3.78858948 C20.96577187 3.73337344 17.43121068 3.68396217 13.89660645 3.63574219 C10.29039303 3.58552371 6.68426453 3.52983946 3.078125 3.47460938 C-3.99862424 3.36703358 -11.07544959 3.26558733 -18.15234375 3.16796875 C-17.09478772 7.66186516 -17.09478772 7.66186516 -13.77734375 10.48046875 C-12.91109375 10.70734375 -12.04484375 10.93421875 -11.15234375 11.16796875 C-10.38921875 11.37421875 -9.62609375 11.58046875 -8.83984375 11.79296875 C-8.28296875 11.91671875 -7.72609375 12.04046875 -7.15234375 12.16796875 C-6.82234375 14.47796875 -6.49234375 16.78796875 -6.15234375 19.16796875 C-13.93232003 16.50054831 -18.3415322 11.27886452 -22.15234375 4.16796875 C-22.15234375 3.17796875 -22.15234375 2.18796875 -22.15234375 1.16796875 C-14.75069609 0.38581117 -7.44103493 0.008666 0 0 Z " fill="#146881" transform="translate(277.15234375,197.83203125)"/>
<path d="M0 0 C15.84 0.33 31.68 0.66 48 1 C48 1.99 48 2.98 48 4 C48.99 4 49.98 4 51 4 C51 4.66 51 5.32 51 6 C51.66 6 52.32 6 53 6 C55.45754937 8.04795781 56.65213635 10.13578975 58 13 C58.76376953 14.11955078 58.76376953 14.11955078 59.54296875 15.26171875 C62.52174002 20.8598921 61.58992808 27.7877697 60 33.75 C59.67 34.4925 59.34 35.235 59 36 C58.34 36 57.68 36 57 36 C57.33 36.763125 57.66 37.52625 58 38.3125 C59 41 59 41 59 44 C58.34 44 57.68 44 57 44 C56.34 43.01 55.68 42.02 55 41 C54.01 41.495 54.01 41.495 53 42 C52.01 41.505 52.01 41.505 51 41 C50.67 41.99 50.34 42.98 50 44 C49.01 43.34 48.02 42.68 47 42 C47.928125 41.443125 48.85625 40.88625 49.8125 40.3125 C55.208274 36.39791886 56.70701461 32.0221528 57.83984375 25.625 C58.1882345 19.91479059 56.08640096 15.08636124 52.625 10.625 C46.86352219 4.86352219 40.57928088 3.16991525 32.55224609 2.87207031 C28.63779772 2.87510203 24.72599355 2.920567 20.8125 3 C18.15215398 3.05357043 15.49286615 3.09318135 12.83203125 3.125 C11.07983276 3.15980469 11.07983276 3.15980469 9.29223633 3.1953125 C5.87102778 2.9923487 3.18557236 2.22840555 0 1 C0 0.67 0 0.34 0 0 Z " fill="#186F90" transform="translate(276,219)"/>
<path d="M0 0 C0.61359375 0.15339844 1.2271875 0.30679687 1.859375 0.46484375 C2.56578125 0.64144531 3.2721875 0.81804687 4 1 C5.33333333 1.33333333 6.66666667 1.66666667 8 2 C8.061875 2.61875 8.12375 3.2375 8.1875 3.875 C8.81740446 6.27117929 8.81740446 6.27117929 11.5 7.125 C12.325 7.41375 13.15 7.7025 14 8 C14.33 8.66 14.66 9.32 15 10 C22.59 10 30.18 10 38 10 C37.505 7.03 37.505 7.03 37 4 C38.34444159 4.90029571 39.67531438 5.82088022 41 6.75 C41.7425 7.26046875 42.485 7.7709375 43.25 8.296875 C43.8275 8.85890625 44.405 9.4209375 45 10 C45 11.32 45 12.64 45 14 C40.73179948 14.17439217 36.46553888 14.30067865 32.19482422 14.38452148 C30.74556316 14.41950365 29.29654519 14.46710991 27.84814453 14.52807617 C14.27364845 15.08471471 14.27364845 15.08471471 9.21875 10.71875 C8.10285458 9.51771111 7.02781883 8.27722569 6 7 C5.40767578 6.33677734 4.81535156 5.67355469 4.20507812 4.99023438 C2.76392609 3.36089066 1.37557225 1.685076 0 0 Z " fill="#19A5D5" transform="translate(413,274)"/>
<path d="M0 0 C0.98533974 0.00280975 0.98533974 0.00280975 1.99058533 0.00567627 C3.37666921 0.01238879 4.7627344 0.02628764 6.14868164 0.046875 C8.27312778 0.07806311 10.39683185 0.08785024 12.52148438 0.09375 C22.88721316 0.1643097 22.88721316 0.1643097 25.21484375 1.328125 C25.21484375 1.988125 25.21484375 2.648125 25.21484375 3.328125 C23.25557312 5.0424868 21.25604163 6.71217668 19.21484375 8.328125 C18.71984375 6.843125 18.71984375 6.843125 18.21484375 5.328125 C18.87484375 5.328125 19.53484375 5.328125 20.21484375 5.328125 C20.21484375 4.668125 20.21484375 4.008125 20.21484375 3.328125 C16.42256231 3.43764616 12.63130535 3.56835741 8.83984375 3.703125 C7.75960938 3.7340625 6.679375 3.765 5.56640625 3.796875 C4.53515625 3.83554688 3.50390625 3.87421875 2.44140625 3.9140625 C1.01175537 3.96119385 1.01175537 3.96119385 -0.44677734 4.00927734 C-2.97410801 4.11368296 -2.97410801 4.11368296 -4.78515625 6.328125 C-7.91015625 6.453125 -7.91015625 6.453125 -10.78515625 6.328125 C-10.78515625 7.318125 -10.78515625 8.308125 -10.78515625 9.328125 C-12.43515625 9.658125 -14.08515625 9.988125 -15.78515625 10.328125 C-14.84925121 9.2226061 -13.91135767 8.11877047 -12.97265625 7.015625 C-12.45058594 6.40074219 -11.92851562 5.78585938 -11.390625 5.15234375 C-10.86082031 4.55035156 -10.33101563 3.94835937 -9.78515625 3.328125 C-9.3969873 2.80226807 -9.00881836 2.27641113 -8.60888672 1.73461914 C-5.82811888 -0.40995964 -3.465505 -0.02636575 0 0 Z " fill="#1291BD" transform="translate(432.78515625,197.671875)"/>
<path d="M0 0 C0.99 0 1.98 0 3 0 C3 18.81 3 37.62 3 57 C10.26 57 17.52 57 25 57 C25 57.33 25 57.66 25 58 C17.41 58.33 9.82 58.66 2 59 C1.26283534 55.31417671 0.87703162 52.58876174 0.88647461 48.93432617 C0.88658791 47.46336739 0.88658791 47.46336739 0.88670349 45.96269226 C0.89186478 44.9166835 0.89702606 43.87067474 0.90234375 42.79296875 C0.90446617 41.17217155 0.90446617 41.17217155 0.90663147 39.51863098 C0.9122192 36.07489224 0.9247695 32.63121902 0.9375 29.1875 C0.94251658 26.84961032 0.94707921 24.51171961 0.95117188 22.17382812 C0.96218462 16.44919647 0.97891059 10.72460292 1 5 C0.01 6.98 -0.98 8.96 -2 11 C-2.95465783 8.83032311 -3.14401212 7.43671207 -2.3984375 5.17578125 C-1.64129615 3.4315257 -0.82390802 1.71372869 0 0 Z " fill="#2395B5" transform="translate(224,229)"/>
<path d="M0 0 C0.680625 0.70125 1.36125 1.4025 2.0625 2.125 C5.20780513 5.27934337 8.5888386 8.13934304 12 11 C10.34136495 15.32504836 7.128959 18.09418825 3.875 21.25 C3.31167969 21.80429687 2.74835938 22.35859375 2.16796875 22.9296875 C0.78313972 24.29104485 -0.60783204 25.64614859 -2 27 C-2.66 25.68 -3.32 24.36 -4 23 C0.75 20 0.75 20 3 20 C2.67 19.01 2.34 18.02 2 17 C3.66666667 15.33333333 5.33333333 13.66666667 7 12 C6.4946875 11.30132812 5.989375 10.60265625 5.46875 9.8828125 C4.8190625 8.97273438 4.169375 8.06265625 3.5 7.125 C2.52546875 5.76761719 2.52546875 5.76761719 1.53125 4.3828125 C0 2 0 2 0 0 Z " fill="#138DB9" transform="translate(382,252)"/>
<path d="M0 0 C0.33 0 0.66 0 1 0 C1 8.91 1 17.82 1 27 C5.55367616 26.90256774 10.10654499 26.79953594 14.65966797 26.68261719 C16.20549035 26.64456022 17.75139428 26.60966868 19.29736328 26.578125 C21.53187018 26.53196346 23.76582671 26.4740602 26 26.4140625 C26.68054443 26.40251129 27.36108887 26.39096008 28.06225586 26.37905884 C32.98855058 26.23076793 37.28224384 25.31304737 42 24 C41 27 41 27 38.6875 28.1875 C26.49967947 30.87295198 12.32205028 28.57311862 0 28 C0 18.76 0 9.52 0 0 Z " fill="#175D7A" transform="translate(281,238)"/>
<path d="M0 0 C0.33 0.66 0.66 1.32 1 2 C0.33496094 3.87597656 0.33496094 3.87597656 -0.765625 6.140625 C-1.16136719 6.96433594 -1.55710938 7.78804687 -1.96484375 8.63671875 C-2.38894531 9.49910156 -2.81304687 10.36148438 -3.25 11.25 C-3.65863281 12.09691406 -4.06726563 12.94382813 -4.48828125 13.81640625 C-6.62257469 18.2291094 -8.79644954 22.62151663 -11 27 C-11.33 27 -11.66 27 -12 27 C-11.9278125 26.38511719 -11.855625 25.77023437 -11.78125 25.13671875 C-11.64203125 23.92435547 -11.64203125 23.92435547 -11.5 22.6875 C-11.4071875 21.88699219 -11.314375 21.08648437 -11.21875 20.26171875 C-10.95186537 17.88103445 -10.95186537 17.88103445 -11 15 C-10.04346365 12.6485148 -9.04718798 10.31254012 -8 8 C-7.01 8.33 -6.02 8.66 -5 9 C-5 8.34 -5 7.68 -5 7 C-4.34 7 -3.68 7 -3 7 C-3 5.02 -3 3.04 -3 1 C-2.01 0.67 -1.02 0.34 0 0 Z " fill="#0BC9F1" transform="translate(220,240)"/>
<path d="M0 0 C2 2 2 2 2.265625 4.609375 C2.21383648 15.01886792 2.21383648 15.01886792 0 20 C-0.66 20 -1.32 20 -2 20 C-1.67 20.763125 -1.34 21.52625 -1 22.3125 C0 25 0 25 0 28 C-0.66 28 -1.32 28 -2 28 C-2.66 27.01 -3.32 26.02 -4 25 C-4.66 25.33 -5.32 25.66 -6 26 C-6.66 25.67 -7.32 25.34 -8 25 C-8.33 25.99 -8.66 26.98 -9 28 C-9.99 27.34 -10.98 26.68 -12 26 C-11.071875 25.443125 -10.14375 24.88625 -9.1875 24.3125 C-3.65751255 20.30054832 -2.20812208 15.551739 -1 9 C-0.59080515 6.00543767 -0.26482099 3.01059651 0 0 Z " fill="#138BB7" transform="translate(335,235)"/>
<path d="M0 0 C0.99 0.33 1.98 0.66 3 1 C3.06058594 2.10859375 3.12117188 3.2171875 3.18359375 4.359375 C3.26802951 5.8229282 3.35267599 7.28646925 3.4375 8.75 C3.47681641 9.47960937 3.51613281 10.20921875 3.55664062 10.9609375 C3.78089574 15.08251909 3.78089574 15.08251909 4.58227539 19.11816406 C5 21 5 21 4 23 C-6.23 23 -16.46 23 -27 23 C-27 22.67 -27 22.34 -27 22 C-17.76 22 -8.52 22 1 22 C0.67 14.74 0.34 7.48 0 0 Z " fill="#1F93A5" transform="translate(126,264)"/>
<path d="M0 0 C2.64 0 5.28 0 8 0 C5.68117365 2.31882635 4.18714044 2.68613242 1.0625 3.5625 C0.18722656 3.81128906 -0.68804687 4.06007813 -1.58984375 4.31640625 C-2.38519531 4.54199219 -3.18054688 4.76757812 -4 5 C-4.99 5.33 -5.98 5.66 -7 6 C-8.39746326 6.05881519 -9.7978551 6.05951743 -11.19604492 6.02172852 C-12.03668991 6.00163223 -12.8773349 5.98153595 -13.74345398 5.96083069 C-14.64666885 5.93379562 -15.54988373 5.90676056 -16.48046875 5.87890625 C-17.40845779 5.85529526 -18.33644684 5.83168427 -19.29255676 5.80735779 C-22.25769495 5.73075991 -25.22256942 5.64671871 -28.1875 5.5625 C-30.1972527 5.50927545 -32.20701829 5.45653507 -34.21679688 5.40429688 C-39.14469838 5.27514994 -44.07237623 5.13932693 -49 5 C-49 4.67 -49 4.34 -49 4 C-35.47 3.67 -21.94 3.34 -8 3 C-8 2.67 -8 2.34 -8 2 C-5.36 2 -2.72 2 0 2 C0 1.34 0 0.68 0 0 Z " fill="#1AB9DE" transform="translate(328,281)"/>
<path d="M0 0 C1.32 0.99 2.64 1.98 4 3 C3.67 3.99 3.34 4.98 3 6 C-1.35992871 6.04945386 -5.71970862 6.08574488 -10.07983398 6.10986328 C-11.56293583 6.11991821 -13.04601788 6.13356404 -14.52905273 6.15087891 C-16.66134531 6.17515006 -18.79337569 6.18648799 -20.92578125 6.1953125 C-22.85031128 6.21102295 -22.85031128 6.21102295 -24.8137207 6.22705078 C-28 6 -28 6 -31 4 C-30.67 3.34 -30.34 2.68 -30 2 C-29.34 2.33 -28.68 2.66 -28 3 C-25.82175039 3.08559118 -23.64084745 3.10713412 -21.4609375 3.09765625 C-20.15898437 3.09443359 -18.85703125 3.09121094 -17.515625 3.08789062 C-16.13541601 3.07953466 -14.75520768 3.07106971 -13.375 3.0625 C-11.98698074 3.05748501 -10.59895978 3.0529221 -9.2109375 3.04882812 C-5.80724868 3.03700976 -2.40364561 3.02053434 1 3 C0.67 2.01 0.34 1.02 0 0 Z " fill="#0A3140" transform="translate(455,282)"/>
<path d="M0 0 C3.3760507 2.20124602 4.87913439 4.18214841 6.578125 7.81640625 C7.01640625 8.74517578 7.4546875 9.67394531 7.90625 10.63085938 C8.3496875 11.59830078 8.793125 12.56574219 9.25 13.5625 C9.70890625 14.53380859 10.1678125 15.50511719 10.640625 16.50585938 C14 23.69952102 14 23.69952102 14 26 C12.35 26.33 10.7 26.66 9 27 C9.33 25.02 9.66 23.04 10 21 C9.34 21 8.68 21 8 21 C7.70996094 20.04287109 7.70996094 20.04287109 7.4140625 19.06640625 C7.15367187 18.24011719 6.89328125 17.41382813 6.625 16.5625 C6.24214844 15.32693359 6.24214844 15.32693359 5.8515625 14.06640625 C5.19117773 11.82201984 5.19117773 11.82201984 3 11 C2.1484375 8.49609375 2.1484375 8.49609375 1.375 5.4375 C1.11460937 4.42558594 0.85421875 3.41367188 0.5859375 2.37109375 C0.39257812 1.58863281 0.19921875 0.80617187 0 0 Z " fill="#1785A0" transform="translate(169,201)"/>
<path d="M0 0 C0.99 0.33 1.98 0.66 3 1 C2.51202438 2.07510078 2.51202438 2.07510078 2.01419067 3.17192078 C0.96647446 6.09348625 0.75763546 8.16354578 0.77294922 11.24926758 C0.77310028 12.26994827 0.77325134 13.29062897 0.77340698 14.34223938 C0.78372955 15.4319957 0.79405212 16.52175201 0.8046875 17.64453125 C0.8075174 18.7694548 0.81034729 19.89437836 0.81326294 21.0533905 C0.82444164 24.63986936 0.84954237 28.22609685 0.875 31.8125 C0.88503277 34.24674118 0.8941581 36.68098628 0.90234375 39.11523438 C0.92437344 45.07690842 0.95782826 51.03843625 1 57 C0.34 57 -0.32 57 -1 57 C-1.02312916 49.71578452 -1.04091801 42.4315769 -1.05181217 35.14733219 C-1.05703975 31.76528187 -1.06413511 28.3832566 -1.07543945 25.0012207 C-1.08834267 21.11670223 -1.09322924 17.23219403 -1.09765625 13.34765625 C-1.10281754 12.12788589 -1.10797882 10.90811554 -1.11329651 9.65138245 C-1.11337204 8.53029587 -1.11344757 7.40920929 -1.11352539 6.25415039 C-1.115746 5.26153702 -1.11796661 4.26892365 -1.12025452 3.24623108 C-1 1 -1 1 0 0 Z " fill="#0BC2F5" transform="translate(228,228)"/>
<path d="M0 0 C4.90870626 7.36305939 4.80670484 16.43579626 4 25 C2.97325494 28.82574137 1.64581267 32.39978477 0 36 C-0.33 36 -0.66 36 -1 36 C-0.85930804 33.87465341 -0.71229079 31.74972471 -0.5625 29.625 C-0.48128906 28.44164062 -0.40007812 27.25828125 -0.31640625 26.0390625 C0 23 0 23 1 21 C1.01610171 19.40321678 0.96535627 17.8054601 0.87890625 16.2109375 C0.80639648 14.79941406 0.80639648 14.79941406 0.73242188 13.359375 C0.67634766 12.37453125 0.62027344 11.3896875 0.5625 10.375 C0.51029297 9.38242188 0.45808594 8.38984375 0.40429688 7.3671875 C0.27441051 4.91115432 0.13943836 2.4555064 0 0 Z " fill="#178CB0" transform="translate(355,226)"/>
<path d="M0 0 C4.2358357 -0.02469321 8.47163342 -0.04285671 12.70751953 -0.05493164 C14.1489332 -0.05996474 15.59034176 -0.06679173 17.03173828 -0.07543945 C19.10190085 -0.08754983 21.17199601 -0.09323847 23.2421875 -0.09765625 C24.4885498 -0.10289307 25.73491211 -0.10812988 27.01904297 -0.11352539 C30 0 30 0 32 1 C32 1.66 32 2.32 32 3 C30.02 3.99 30.02 3.99 28 5 C28 4.01 28 3.02 28 2 C18.43 2 8.86 2 -1 2 C-0.67 1.34 -0.34 0.68 0 0 Z " fill="#0E384A" transform="translate(426,198)"/>
<path d="M0 0 C0 0.99 0 1.98 0 3 C-0.33 3.33 -0.66 3.66 -1 4 C8.9 4.33 18.8 4.66 29 5 C27 7 27 7 24.01904297 7.22705078 C22.77268066 7.21657715 21.52631836 7.20610352 20.2421875 7.1953125 C19.57913605 7.1924826 18.91608459 7.18965271 18.23294067 7.18673706 C16.11344417 7.17553435 13.99436896 7.15043051 11.875 7.125 C10.43880818 7.11497028 9.00260975 7.10584441 7.56640625 7.09765625 C4.04413372 7.075595 0.52210797 7.04106494 -3 7 C-3.33 6.34 -3.66 5.68 -4 5 C-2.68 3.35 -1.36 1.7 0 0 Z " fill="#062C38" transform="translate(343,281)"/>
<path d="M0 0 C0.33 0.66 0.66 1.32 1 2 C0.34 2 -0.32 2 -1 2 C-1.103125 2.763125 -1.20625 3.52625 -1.3125 4.3125 C-2.04711194 7.18416484 -2.6716065 8.23042094 -5 10 C-5.66 10 -6.32 10 -7 10 C-7 10.66 -7 11.32 -7 12 C-7.66 12 -8.32 12 -9 12 C-9.0825 12.598125 -9.165 13.19625 -9.25 13.8125 C-10.23275289 16.6788626 -11.35827876 17.56592275 -14 19 C-16.13671875 18.57421875 -16.13671875 18.57421875 -18 18 C-12 12 -6 6 0 0 Z " fill="#138EB5" transform="translate(366,259)"/>
<path d="M0 0 C0.99 0.33 1.98 0.66 3 1 C1.87548273 3.9719385 0.77706209 6.33440687 -1 9 C-3.3828125 9.51171875 -3.3828125 9.51171875 -6.125 9.6875 C-7.49011719 9.78611328 -7.49011719 9.78611328 -8.8828125 9.88671875 C-9.93082031 9.94279297 -9.93082031 9.94279297 -11 10 C-14 4.25 -14 4.25 -14 2 C-12.68 2.33 -11.36 2.66 -10 3 C-10 3.99 -10 4.98 -10 6 C-7.36 6.33 -4.72 6.66 -2 7 C-2.33 5.68 -2.66 4.36 -3 3 C-2.01 3 -1.02 3 0 3 C0 2.01 0 1.02 0 0 Z " fill="#1997AF" transform="translate(199,278)"/>
<path d="M0 0 C0.66 0 1.32 0 2 0 C1.83923477 0.5502887 1.67846954 1.10057739 1.51283264 1.6675415 C0.94031116 4.27147599 0.83911218 6.65326922 0.79467773 9.31933594 C0.77473251 10.38013367 0.75478729 11.4409314 0.73423767 12.53387451 C0.71752518 13.67253967 0.70081268 14.81120483 0.68359375 15.984375 C0.66281265 17.15510559 0.64203156 18.32583618 0.62062073 19.53204346 C0.55524372 23.27130269 0.49629509 27.01063205 0.4375 30.75 C0.39430353 33.2851635 0.35068888 35.82031991 0.30664062 38.35546875 C0.19957441 44.5702384 0.0977859 50.78507778 0 57 C-0.33 57 -0.66 57 -1 57 C-1.02528819 49.20378306 -1.04284068 41.40757664 -1.05493164 33.61132812 C-1.05997042 30.95735275 -1.06680151 28.30338016 -1.07543945 25.64941406 C-1.08752489 21.84178989 -1.09323275 18.03420231 -1.09765625 14.2265625 C-1.10281754 13.03382721 -1.10797882 11.84109192 -1.11329651 10.61221313 C-1.11340981 8.96072769 -1.11340981 8.96072769 -1.11352539 7.27587891 C-1.115746 6.30325104 -1.11796661 5.33062317 -1.12025452 4.32852173 C-1 2 -1 2 0 0 Z " fill="#15CEF0" transform="translate(158,227)"/>
<path d="M0 0 C11.22 0 22.44 0 34 0 C34 0.33 34 0.66 34 1 C23.44 1 12.88 1 2 1 C1.67 2.65 1.34 4.3 1 6 C0.34 6 -0.32 6 -1 6 C-1.2165625 7.175625 -1.2165625 7.175625 -1.4375 8.375 C-2 11 -2 11 -3 13 C-3.66 13 -4.32 13 -5 13 C-3.57070062 8.49220966 -1.88030995 4.38738988 0 0 Z " fill="#1DB7E0" transform="translate(214,200)"/>
<path d="M0 0 C0.66 0.33 1.32 0.66 2 1 C1.01 2.98 0.02 4.96 -1 7 C7.91 7 16.82 7 26 7 C26.66 5.68 27.32 4.36 28 3 C28.99 3.33 29.98 3.66 31 4 C28.63330403 7.03988949 27.4932284 7.93396165 23.60839844 8.45410156 C22.2887207 8.4331543 20.96904297 8.41220703 19.609375 8.390625 C18.55245453 8.38213531 18.55245453 8.38213531 17.47418213 8.37347412 C15.23208572 8.35115078 12.99161012 8.30096754 10.75 8.25 C9.22658565 8.22992952 7.70314614 8.2116797 6.1796875 8.1953125 C2.4526017 8.15130118 -1.27354087 8.08230372 -5 8 C-3.35 5.36 -1.7 2.72 0 0 Z " fill="#1A9ABE" transform="translate(346,278)"/>
<path d="M0 0 C10.23 0 20.46 0 31 0 C31 0.33 31 0.66 31 1 C23.08 1 15.16 1 7 1 C7.33 1.99 7.66 2.98 8 4 C7.34 4 6.68 4 6 4 C5.67 5.32 5.34 6.64 5 8 C1.99530649 5.40503742 1.63141204 4.0785301 0 0 Z " fill="#1AA9DA" transform="translate(343,200)"/>
<path d="M0 0 C4.91935902 4.11619836 9.52647956 8.40410362 14 13 C12.02 13.99 12.02 13.99 10 15 C9.34 13.68 8.68 12.36 8 11 C7.34 11 6.68 11 6 11 C6 9.68 6 8.36 6 7 C4.35 7.33 2.7 7.66 1 8 C0.02391783 5.07175348 -0.08226668 3.04386724 0 0 Z " fill="#108AB1" transform="translate(427,254)"/>
<path d="M0 0 C12 0 12 0 17 3 C16.67 3.66 16.34 4.32 16 5 C15.38125 4.71125 14.7625 4.4225 14.125 4.125 C9.89354839 2.60167742 5.40996407 1.88199281 1 1 C1 8.59 1 16.18 1 24 C0.67 24 0.34 24 0 24 C0 16.08 0 8.16 0 0 Z " fill="#1BB6E0" transform="translate(257,226)"/>
<path d="M0 0 C0.99 0 1.98 0 3 0 C3.33 0.99 3.66 1.98 4 3 C6.91038896 4.4158649 9.846502 5.29922267 13 6 C13.33 8.31 13.66 10.62 14 13 C6.72147665 10.50450628 3.43496345 6.61548517 0 0 Z " fill="#0DA0D1" transform="translate(257,204)"/>
<path d="M0 0 C-13.86 -0.33 -27.72 -0.66 -42 -1 C-42 -1.33 -42 -1.66 -42 -2 C-36.50126798 -2.21700021 -31.00232463 -2.41386992 -25.50219727 -2.59204102 C-23.63090718 -2.65550484 -21.75979576 -2.72448516 -19.88891602 -2.79907227 C-17.20096177 -2.90527889 -14.51299103 -2.9916863 -11.82421875 -3.07421875 C-10.56782845 -3.1302552 -10.56782845 -3.1302552 -9.28605652 -3.18742371 C-3.34161512 -3.34161512 -3.34161512 -3.34161512 0 0 Z " fill="#13B6E3" transform="translate(322,221)"/>
<path d="M0 0 C5.23435005 4.27293882 9.67106815 8.81580806 14 14 C13.67 14.66 13.34 15.32 13 16 C11.68 15.34 10.36 14.68 9 14 C9 13.01 9 12.02 9 11 C8.01 11 7.02 11 6 11 C6 9.68 6 8.36 6 7 C4.35 6.67 2.7 6.34 1 6 C0.67 4.02 0.34 2.04 0 0 Z " fill="#1183A9" transform="translate(396,222)"/>
<path d="M0 0 C3.04049801 3.64859761 4.96518762 7.7444533 7 12 C7.66 12 8.32 12 9 12 C9 13.32 9 14.64 9 16 C6.03 15.505 6.03 15.505 3 15 C2.49363393 13.25183142 1.99515381 11.50137737 1.5 9.75 C1.2215625 8.77546875 0.943125 7.8009375 0.65625 6.796875 C0 4 0 4 0 0 Z " fill="#1398B4" transform="translate(185,231)"/>
<path d="M0 0 C0.680625 0.70125 1.36125 1.4025 2.0625 2.125 C5.20780513 5.27934337 8.5888386 8.13934304 12 11 C10.25 14.875 10.25 14.875 8 16 C7.73445313 15.27167969 7.46890625 14.54335938 7.1953125 13.79296875 C6.00529212 11.01236557 4.61048964 8.78159034 2.875 6.3125 C0 2.22009569 0 2.22009569 0 0 Z " fill="#156E88" transform="translate(382,252)"/>
<path d="M0 0 C4.6521675 3.19005772 7.46990366 7.02593827 10 12 C10 12.66 10 13.32 10 14 C9.34 14 8.68 14 8 14 C8 13.34 8 12.68 8 12 C7.01 11.67 6.02 11.34 5 11 C4.67 9.35 4.34 7.7 4 6 C3.01 6 2.02 6 1 6 C0.67 6.66 0.34 7.32 0 8 C-0.79953138 4.71303767 -1.09658936 3.28976808 0 0 Z " fill="#0F8FB7" transform="translate(345,212)"/>
<path d="M0 0 C0.33 0.66 0.66 1.32 1 2 C1.66 2.33 2.32 2.66 3 3 C2.13375 3.3403125 2.13375 3.3403125 1.25 3.6875 C-1.21237796 4.93897766 -1.21237796 4.93897766 -3.0625 7.625 C-3.701875 8.40875 -4.34125 9.1925 -5 10 C-5.99 10 -6.98 10 -8 10 C-8.33 11.65 -8.66 13.3 -9 15 C-9.66 14.67 -10.32 14.34 -11 14 C-10.52590352 9.68269587 -7.96603297 7.66352539 -4.9375 4.75 C-4.01839844 3.85796875 -3.09929687 2.9659375 -2.15234375 2.046875 C-1.44207031 1.37140625 -0.73179687 0.6959375 0 0 Z " fill="#13769D" transform="translate(416,208)"/>
<path d="M0 0 C0.33 0.99 0.66 1.98 1 3 C0.34 3 -0.32 3 -1 3 C-0.67 3.763125 -0.34 4.52625 0 5.3125 C1 8 1 8 1 11 C0.34 11 -0.32 11 -1 11 C-1.66 10.01 -2.32 9.02 -3 8 C-3.99 8.495 -3.99 8.495 -5 9 C-5.66 8.67 -6.32 8.34 -7 8 C-7.33 8.99 -7.66 9.98 -8 11 C-8.99 10.34 -9.98 9.68 -11 9 C-9.6696875 8.1646875 -9.6696875 8.1646875 -8.3125 7.3125 C-5.15720622 5.22146208 -2.60131889 2.75433765 0 0 Z " fill="#09B5E8" transform="translate(334,252)"/>
<path d="M0 0 C0.598125 0.226875 1.19625 0.45375 1.8125 0.6875 C1.4825 1.3475 1.1525 2.0075 0.8125 2.6875 C0.1525 2.6875 -0.5075 2.6875 -1.1875 2.6875 C-1.1875 3.6775 -1.1875 4.6675 -1.1875 5.6875 C-2.8375 6.0175 -4.4875 6.3475 -6.1875 6.6875 C-6.1875 7.3475 -6.1875 8.0075 -6.1875 8.6875 C-7.8375 9.3475 -9.4875 10.0075 -11.1875 10.6875 C-11.1875 10.0275 -11.1875 9.3675 -11.1875 8.6875 C-10.5275 8.6875 -9.8675 8.6875 -9.1875 8.6875 C-9.1875 8.0275 -9.1875 7.3675 -9.1875 6.6875 C-8.5275 6.6875 -7.8675 6.6875 -7.1875 6.6875 C-6.919375 6.089375 -6.65125 5.49125 -6.375 4.875 C-3.46022727 -0.49431818 -3.46022727 -0.49431818 0 0 Z " fill="#137398" transform="translate(378.1875,248.3125)"/>
<path d="M0 0 C2.64 0 5.28 0 8 0 C5.68994131 2.31005869 4.16916343 2.72174103 1.0625 3.625 C0.18722656 3.88539063 -0.68804687 4.14578125 -1.58984375 4.4140625 C-4 5 -4 5 -7 5 C-7.33 4.01 -7.66 3.02 -8 2 C-5.36 2 -2.72 2 0 2 C0 1.34 0 0.68 0 0 Z " fill="#127D9D" transform="translate(328,281)"/>
<path d="M0 0 C0.33 0.66 0.66 1.32 1 2 C1.99 1.67 2.98 1.34 4 1 C4 3.31 4 5.62 4 8 C1 8 1 8 -0.60546875 6.46875 C-1.12753906 5.8190625 -1.64960938 5.169375 -2.1875 4.5 C-2.71730469 3.8503125 -3.24710937 3.200625 -3.79296875 2.53125 C-4.19128906 2.0259375 -4.58960938 1.520625 -5 1 C-3.35 0.67 -1.7 0.34 0 0 Z " fill="#0E88B5" transform="translate(395,249)"/>
<path d="M0 0 C0.33 0.66 0.66 1.32 1 2 C1.99 2 2.98 2 4 2 C4 3.65 4 5.3 4 7 C4.66 7 5.32 7 6 7 C6 8.32 6 9.64 6 11 C6.66 11 7.32 11 8 11 C8 11.66 8 12.32 8 13 C8.66 13 9.32 13 10 13 C9.34 14.32 8.68 15.64 8 17 C6.65869239 14.73354942 5.32683766 12.46239903 4 10.1875 C3.42765625 9.22360352 3.42765625 9.22360352 2.84375 8.24023438 C0 3.33984375 0 3.33984375 0 0 Z " fill="#13819E" transform="translate(167,245)"/>
<path d="M0 0 C0.99 0 1.98 0 3 0 C3 3.96 3 7.92 3 12 C2.34 11.67 1.68 11.34 1 11 C1 9.02 1 7.04 1 5 C0.01 6.98 -0.98 8.96 -2 11 C-2.95465783 8.83032311 -3.14401212 7.43671207 -2.3984375 5.17578125 C-1.64129615 3.4315257 -0.82390802 1.71372869 0 0 Z " fill="#1595B2" transform="translate(224,229)"/>
<path d="M0 0 C0.99 0.33 1.98 0.66 3 1 C3.06058594 2.10859375 3.12117187 3.2171875 3.18359375 4.359375 C3.26802951 5.8229282 3.35267599 7.28646925 3.4375 8.75 C3.47681641 9.47960937 3.51613281 10.20921875 3.55664062 10.9609375 C3.78089574 15.08251909 3.78089574 15.08251909 4.58227539 19.11816406 C5 21 5 21 4 23 C3.34 23 2.68 23 2 23 C1.97494385 22.40985107 1.9498877 21.81970215 1.92407227 21.21166992 C1.80799948 18.53673186 1.68532428 15.8621362 1.5625 13.1875 C1.52318359 12.25873047 1.48386719 11.32996094 1.44335938 10.37304688 C1.40146484 9.48037109 1.35957031 8.58769531 1.31640625 7.66796875 C1.27974854 6.84578857 1.24309082 6.0236084 1.20532227 5.17651367 C1.06572228 2.82094822 1.06572228 2.82094822 0 0 Z " fill="#010608" transform="translate(126,264)"/>
<path d="M0 0 C1.13199353 0.9080162 2.25532363 1.82683826 3.375 2.75 C4.00148438 3.26046875 4.62796875 3.7709375 5.2734375 4.296875 C7.08312318 6.08199481 8.00117455 7.67949644 9 10 C3.36199095 8.7918552 3.36199095 8.7918552 1 7 C0.25 3.375 0.25 3.375 0 0 Z " fill="#1180A2" transform="translate(441,268)"/>
<path d="M0 0 C1.32 0 2.64 0 4 0 C2.5129879 4.59621922 0.20187872 7.46972347 -3 11 C-3.33 11 -3.66 11 -4 11 C-4 9.35 -4 7.7 -4 6 C-3.34 6 -2.68 6 -2 6 C-2 5.34 -2 4.68 -2 4 C-1.34 4 -0.68 4 0 4 C0 2.68 0 1.36 0 0 Z " fill="#1092B3" transform="translate(350,262)"/>
<path d="M0 0 C6.51791392 -0.3540919 11.17521449 -0.03901852 17 3 C17 3.33 17 3.66 17 4 C15.10353002 3.88506243 13.20781668 3.75760358 11.3125 3.625 C10.25675781 3.55539063 9.20101563 3.48578125 8.11328125 3.4140625 C5.09322731 3.01239911 2.75921946 2.25930981 0 1 C0 0.67 0 0.34 0 0 Z " fill="#157F9B" transform="translate(316,200)"/>
<path d="M0 0 C3.26954202 0.56371414 4.82575883 1.49962266 7 4 C6.67 2.68 6.34 1.36 6 0 C7.65 0 9.3 0 11 0 C9.70700306 2.88437779 8.34058637 4.87219421 6 7 C5.01 6.34 4.02 5.68 3 5 C3 4.34 3 3.68 3 3 C2.34 3 1.68 3 1 3 C0.67 2.01 0.34 1.02 0 0 Z " fill="#177AA0" transform="translate(415,231)"/>
<path d="M0 0 C4.12969572 6.19454359 4.30062652 12.78496357 4 20 C3.67 20 3.34 20 3 20 C0.71415102 13.44723293 0.39405632 6.89598561 0 0 Z " fill="#10617C" transform="translate(355,226)"/>
<path d="M0 0 C2.31 1.98 4.62 3.96 7 6 C6.67 6.99 6.34 7.98 6 9 C5.34 9 4.68 9 4 9 C4 7.68 4 6.36 4 5 C3.34 5 2.68 5 2 5 C1.67 6.32 1.34 7.64 1 9 C0.34 8.67 -0.32 8.34 -1 8 C-0.67 5.36 -0.34 2.72 0 0 Z " fill="#129AC0" transform="translate(274,230)"/>
<path d="M0 0 C2.66666667 0.66666667 5.33333333 1.33333333 8 2 C8.12375 2.61875 8.2475 3.2375 8.375 3.875 C8.87197356 6.19120832 8.87197356 6.19120832 11 8 C10.01 8.495 10.01 8.495 9 9 C7.68412059 7.87895467 6.37239647 6.75303035 5.0625 5.625 C4.33160156 4.99851562 3.60070312 4.37203125 2.84765625 3.7265625 C1 2 1 2 0 0 Z " fill="#117198" transform="translate(413,274)"/>
<path d="M0 0 C-1 3 -1 3 -3.3125 4.1875 C-8.5503146 5.34159474 -13.65884952 5.15556749 -19 5 C-19 4.67 -19 4.34 -19 4 C-18.35933594 3.96261719 -17.71867187 3.92523438 -17.05859375 3.88671875 C-11.28210035 3.44767082 -5.32904933 0 0 0 Z " fill="#1892B9" transform="translate(323,262)"/>
<path d="M0 0 C0.33 0.66 0.66 1.32 1 2 C0.00390625 4.6015625 0.00390625 4.6015625 -1.4375 7.625 C-1.91058594 8.62789062 -2.38367188 9.63078125 -2.87109375 10.6640625 C-3.24363281 11.43492187 -3.61617187 12.20578125 -4 13 C-4.33 13 -4.66 13 -5 13 C-5 11.02 -5 9.04 -5 7 C-4.34 7 -3.68 7 -3 7 C-3 5.02 -3 3.04 -3 1 C-2.01 0.67 -1.02 0.34 0 0 Z " fill="#12829E" transform="translate(220,240)"/>
<path d="M0 0 C1.67299959 0.65061095 3.33859237 1.32033324 5 2 C5.7425 2.2475 6.485 2.495 7.25 2.75 C9 4 9 4 9.75 7.125 C9.87375 8.548125 9.87375 8.548125 10 10 C2.51708428 3.84965831 2.51708428 3.84965831 0 0 Z " fill="#148FBB" transform="translate(373,232)"/>
<path d="M0 0 C3 1 3 1 4.6875 3.9375 C6 7 6 7 6 9 C4.35 9.33 2.7 9.66 1 10 C1.33 8.02 1.66 6.04 2 4 C1.34 4 0.68 4 0 4 C0 2.68 0 1.36 0 0 Z " fill="#1298BB" transform="translate(177,218)"/>
<path d="M0 0 C0.99 0.33 1.98 0.66 3 1 C1.37660195 2.70884005 -0.29319053 4.37446717 -2 6 C-2.66 6 -3.32 6 -4 6 C-4 6.66 -4 7.32 -4 8 C-4.99 8 -5.98 8 -7 8 C-7 6.35 -7 4.7 -7 3 C-5.68 3.33 -4.36 3.66 -3 4 C-3 3.34 -3 2.68 -3 2 C-2.01 2 -1.02 2 0 2 C0 1.34 0 0.68 0 0 Z " fill="#1487A8" transform="translate(343,273)"/>
<path d="M0 0 C2.97 0.495 2.97 0.495 6 1 C6 1.66 6 2.32 6 3 C6.66 3 7.32 3 8 3 C8.33 4.98 8.66 6.96 9 9 C7.87105124 8.06725891 6.74699124 7.12859878 5.625 6.1875 C4.99851562 5.66542969 4.37203125 5.14335937 3.7265625 4.60546875 C2 3 2 3 0 0 Z " fill="#13779E" transform="translate(398,258)"/>
<path d="M0 0 C0.99 0 1.98 0 3 0 C1.50829734 4.9723422 -0.60457417 9.41845739 -3 14 C-3.33 14 -3.66 14 -4 14 C-3.67 11.69 -3.34 9.38 -3 7 C-2.34 7 -1.68 7 -1 7 C-0.67 4.69 -0.34 2.38 0 0 Z " fill="#15809B" transform="translate(212,253)"/>
<path d="M0 0 C-0.37507382 2.71928517 -0.84218661 3.84218661 -2.8125 5.8125 C-5 7 -5 7 -7.13671875 6.57421875 C-7.75160156 6.38472656 -8.36648438 6.19523437 -9 6 C-8.07213211 4.99105628 -7.13231567 3.99309093 -6.1875 3 C-5.66542969 2.443125 -5.14335937 1.88625 -4.60546875 1.3125 C-3 0 -3 0 0 0 Z " fill="#1499BF" transform="translate(357,271)"/>
<path d="M0 0 C2.64 1.98 5.28 3.96 8 6 C4.86350275 7.04549908 4.0051095 7.00170317 1 6 C0.67 5.67 0.34 5.34 0 5 C0 3.35 0 1.7 0 0 Z " fill="#118FB6" transform="translate(388,215)"/>
<path d="M0 0 C1.16959987 0.97566112 2.33561177 1.955625 3.5 2.9375 C4.1496875 3.48277344 4.799375 4.02804687 5.46875 4.58984375 C5.9740625 5.05519531 6.479375 5.52054687 7 6 C7 6.33 7 6.66 7 7 C5.02 7.33 3.04 7.66 1 8 C0.02391783 5.07175348 -0.08226668 3.04386724 0 0 Z " fill="#0E7DA2" transform="translate(427,254)"/>
<path d="M0 0 C1.98 0 3.96 0 6 0 C7.08174162 3.36541838 6.92538169 4.29847322 6 8 C4.02 5.36 2.04 2.72 0 0 Z " fill="#127FAA" transform="translate(383,242)"/>
<path d="M0 0 C4.2742558 1.5830577 6.26531794 4.50568404 9 8 C6.1875 7.8125 6.1875 7.8125 3 7 C1.14766715 4.59196729 0 3.07258075 0 0 Z " fill="#1592B8" transform="translate(374,201)"/>
<path d="M0 0 C0.99 0.33 1.98 0.66 3 1 C2.01 1.33 1.02 1.66 0 2 C0 2.99 0 3.98 0 5 C-0.7425 4.95875 -1.485 4.9175 -2.25 4.875 C-5.08758952 5.00398134 -6.58773938 5.57051222 -9 7 C-8.67 5.68 -8.34 4.36 -8 3 C-6.865625 2.690625 -5.73125 2.38125 -4.5625 2.0625 C-1.21224901 1.37075469 -1.21224901 1.37075469 0 0 Z " fill="#01ACEA" transform="translate(430,201)"/>
<path d="M0 0 C0.33 0 0.66 0 1 0 C1 1.98 1 3.96 1 6 C0.34 6 -0.32 6 -1 6 C-1.2165625 7.175625 -1.2165625 7.175625 -1.4375 8.375 C-2 11 -2 11 -3 13 C-3.66 13 -4.32 13 -5 13 C-3.58192622 8.52761347 -1.88695626 4.28853694 0 0 Z " fill="#1689A8" transform="translate(214,200)"/>
<path d="M0 0 C1.65 0.33 3.3 0.66 5 1 C2.33333333 3.66666667 -0.33333333 6.33333333 -3 9 C-3.125 6.625 -3.125 6.625 -3 4 C-2.34 3.34 -1.68 2.68 -1 2 C-0.67 1.34 -0.34 0.68 0 0 Z " fill="#148DB4" transform="translate(436,216)"/>
<path d="M0 0 C1.32 0 2.64 0 4 0 C4.33 0.99 4.66 1.98 5 3 C4.34 3 3.68 3 3 3 C2.67 4.32 2.34 5.64 2 7 C0.4375 5.75 0.4375 5.75 -1 4 C-0.6875 1.8125 -0.6875 1.8125 0 0 Z " fill="#0C8EC6" transform="translate(346,201)"/>
<path d="M0 0 C5.57142857 5.14285714 5.57142857 5.14285714 6 9 C6.66 9 7.32 9 8 9 C8 9.66 8 10.32 8 11 C4.50892621 9.83630874 4.14777237 9.11026462 2.3125 6.0625 C1.87550781 5.35222656 1.43851562 4.64195312 0.98828125 3.91015625 C0 2 0 2 0 0 Z " fill="#168DB2" transform="translate(382,252)"/>
<path d="M0 0 C3.24299151 2.38957269 5.50902342 4.2047869 7 8 C4.83125748 7.49396008 3.00032373 7.00016187 1 6 C0.375 2.9375 0.375 2.9375 0 0 Z " fill="#1492B6" transform="translate(450,278)"/>
<path d="M0 0 C0.99 0 1.98 0 3 0 C4.48320272 3.83887763 5.22419163 6.06204091 4 10 C3.32845067 8.71086513 2.66291141 7.41859796 2 6.125 C1.62875 5.40570313 1.2575 4.68640625 0.875 3.9453125 C0 2 0 2 0 0 Z " fill="#188CAB" transform="translate(176,262)"/>
<path d="M0 0 C3.68754757 0.49831724 5.60490662 1.10067643 8 4 C5 5 5 5 1.8125 3.5625 C0.884375 3.046875 -0.04375 2.53125 -1 2 C-0.67 1.34 -0.34 0.68 0 0 Z " fill="#13819B" transform="translate(266,226)"/>
<path d="M0 0 C0.99 0 1.98 0 3 0 C3.33 0.99 3.66 1.98 4 3 C5.99665314 4.68538601 5.99665314 4.68538601 8 6 C7.67 6.99 7.34 7.98 7 9 C4.03595495 6.19195732 1.55500981 3.81684226 0 0 Z " fill="#167593" transform="translate(257,204)"/>
<path d="M0 0 C0.33 0 0.66 0 1 0 C1 1.65 1 3.3 1 5 C0.01 5.495 0.01 5.495 -1 6 C-1.66 5.67 -2.32 5.34 -3 5 C-3.33 5.99 -3.66 6.98 -4 8 C-4.99 7.34 -5.98 6.68 -7 6 C-6.030625 5.38125 -5.06125 4.7625 -4.0625 4.125 C-0.97164638 2.34321154 -0.97164638 2.34321154 0 0 Z " fill="#1084A7" transform="translate(330,255)"/>
<path d="M0 0 C1.14926266 0.95421808 2.29430541 1.91352045 3.4375 2.875 C4.07558594 3.40867188 4.71367187 3.94234375 5.37109375 4.4921875 C7 6 7 6 8 8 C5.6875 7.8125 5.6875 7.8125 3 7 C0 2.96551724 0 2.96551724 0 0 Z " fill="#1688AD" transform="translate(410,237)"/>
<path d="M0 0 C0.309375 0.639375 0.61875 1.27875 0.9375 1.9375 C1.8345163 3.93610821 1.8345163 3.93610821 3 5 C3.07179964 6.51928038 3.08392007 8.04167482 3.0625 9.5625 C3.05347656 10.38878906 3.04445313 11.21507812 3.03515625 12.06640625 C3.01775391 13.02353516 3.01775391 13.02353516 3 14 C2.67 14 2.34 14 2 14 C0.66416101 9.15758367 -0.25328119 5.06562383 0 0 Z " fill="#0F78A0" transform="translate(332,228)"/>
<path d="M0 0 C2.31 1.98 4.62 3.96 7 6 C4 7 4 7 1 6 C0.67 4.02 0.34 2.04 0 0 Z " fill="#167093" transform="translate(396,222)"/>
<path d="M0 0 C0.99 0.33 1.98 0.66 3 1 C4.1875 4.0625 4.1875 4.0625 5 7 C4.34 7 3.68 7 3 7 C3 6.34 3 5.68 3 5 C2.01 4.67 1.02 4.34 0 4 C0 2.68 0 1.36 0 0 Z " fill="#188AB3" transform="translate(350,219)"/>
<path d="M0 0 C0.66 0 1.32 0 2 0 C2 1.65 2 3.3 2 5 C1.01 5.33 0.02 5.66 -1 6 C-1.66 5.67 -2.32 5.34 -3 5 C-2.67 4.01 -2.34 3.02 -2 2 C-1.34 2 -0.68 2 0 2 C0 1.34 0 0.68 0 0 Z " fill="#00BBF6" transform="translate(356,273)"/>
<path d="M0 0 C0.99 0 1.98 0 3 0 C2.6875 1.875 2.6875 1.875 2 4 C1.01 4.66 0.02 5.32 -1 6 C-1.625 4.125 -1.625 4.125 -2 2 C-1.34 1.34 -0.68 0.68 0 0 Z " fill="#12A3CD" transform="translate(380,273)"/>
<path d="M0 0 C5.74504249 5.30311615 5.74504249 5.30311615 6 9 C5.67 9.66 5.34 10.32 5 11 C4.15841464 9.73461631 3.32700252 8.46246221 2.5 7.1875 C1.80390625 6.12595703 1.80390625 6.12595703 1.09375 5.04296875 C0 3 0 3 0 0 Z " fill="#09506D" transform="translate(161,234)"/>
<path d="M0 0 C0.598125 0.33 1.19625 0.66 1.8125 1 C4.05386471 2.20787988 4.05386471 2.20787988 7 2 C7 3.65 7 5.3 7 7 C5.83040013 6.02433888 4.66438823 5.044375 3.5 4.0625 C2.8503125 3.51722656 2.200625 2.97195312 1.53125 2.41015625 C1.0259375 1.94480469 0.520625 1.47945312 0 1 C0 0.67 0 0.34 0 0 Z " fill="#0C6287" transform="translate(358,217)"/>
<path d="M0 0 C0.66 0 1.32 0 2 0 C2 0.66 2 1.32 2 2 C2.66 2 3.32 2 4 2 C4 3.98 4 5.96 4 8 C0 3.375 0 3.375 0 0 Z " fill="#1691AE" transform="translate(181,272)"/>
<path d="M0 0 C1.65 0 3.3 0 5 0 C4.34 1.65 3.68 3.3 3 5 C2.34 5 1.68 5 1 5 C0.67 3.35 0.34 1.7 0 0 Z " fill="#0CCFF7" transform="translate(122,267)"/>
<path d="M0 0 C2 2 2 2 2 5 C1.34 5 0.68 5 0 5 C0 3.35 0 1.7 0 0 Z " fill="#000000" transform="translate(252,282)"/>
</svg>
